<svg xmlns="http://www.w3.org/2000/svg" viewBox="0 0 1200 520" role="img" aria-labelledby="title desc"><title id="title">뇌과학 학습 회복 일러스트</title><desc id="desc">부드러운 유리 배경 위에 뇌 회로와 책, 마음 돌봄 요소가 함께 있는 이미지</desc><defs><linearGradient id="bg" x1="0" y1="0" x2="1" y2="1"><stop offset="0" stop-color="#f4efff"/><stop offset=".55" stop-color="#fbfbff"/><stop offset="1" stop-color="#e8fff7"/></linearGradient><filter id="shadow" x="-20%" y="-20%" width="140%" height="150%"><feDropShadow dx="0" dy="30" stdDeviation="28" flood-color="#6d28d9" flood-opacity=".15"/></filter></defs><rect width="1200" height="520" rx="54" fill="url(#bg)"/><circle cx="944" cy="130" r="96" fill="#7c3aed" opacity=".10"/><circle cx="260" cy="392" r="128" fill="#0f9f77" opacity=".10"/><g filter="url(#shadow)"><rect x="178" y="92" width="844" height="336" rx="44" fill="#fff" opacity=".68" stroke="#fff"/></g><g transform="translate(600 244)" fill="none" stroke="#7c3aed" stroke-width="16" stroke-linecap="round" stroke-linejoin="round"><path d="M-190 48c-76-8-88-98-24-130 18-78 116-66 136-17 42-42 126-8 116 58 64 2 82 80 28 118-44 31-107 18-139-20-34 40-78 52-117-9z" opacity=".72"/><path d="M-94-86v184M-152-18h125M-34-72c20 28 18 66-4 96M40-34h94M76-86c42 20 54 62 34 98" opacity=".55"/></g><g stroke="#0f9f77" stroke-width="6" fill="#fff"><circle cx="416" cy="160" r="14"/><circle cx="772" cy="152" r="14"/><circle cx="810" cy="330" r="14"/><circle cx="456" cy="350" r="14"/><path d="M416 160c-42 32-54 94-20 142M772 152c58 28 78 94 38 178M456 350c88 58 250 50 354-20" fill="none" opacity=".45"/></g><g transform="translate(300 320)"><path d="M0 0h156c28 0 50 22 50 50H50C22 50 0 28 0 0z" fill="#1d1d1f" opacity=".80"/><path d="M52 0h156c28 0 50 22 50 50H102C74 50 52 28 52 0z" fill="#0071e3" opacity=".72"/></g></svg>